<svg width="734" height="755" viewBox="0 0 734 755" fill="none" xmlns="http://www.w3.org/2000/svg">
<path d="M490.316 201.992C489.442 197.874 495.806 193.408 499.543 193.214C501.524 192.667 510.655 196.672 512.524 197.026C515.626 197.614 520.417 200.421 522.606 202.469C526.043 205.684 530.786 210.283 533.326 213.929C535.718 217.362 539.187 219.539 542.698 224.258C547 230.039 550.044 232.725 552.822 237.272C555.101 241.004 556.627 248.473 558.43 253.78C560.01 264.424 563.637 269.111 555.367 274.321C534.256 281.492 515.245 251.925 504.918 237.409C500.437 231.111 495.666 226.252 493.171 218.906C491.386 213.651 491.459 207.376 490.316 201.992Z" stroke="black" stroke-width="3" stroke-linecap="round"/>
<path d="M493.651 195.448C497.544 194.126 501.51 189.56 505.154 187.372C509.036 185.04 511.57 182.578 518.783 180.128C523.661 176.724 526.065 175.908 532.076 173.866C536.884 172.233 538.437 171.705 542.699 170.257C546.283 169.04 552.516 164.939 555.364 164.612C560.038 164.076 562.54 166.372 566.657 167.805C574.455 174.287 574.252 175.663 582.737 185.088C587.768 190.677 587.236 190.204 590.582 194.112C593.813 196.12 595.203 202.466 596.414 206.031C598.951 213.5 594.735 223.264 591.187 230.236C583.135 246.06 573.174 257.177 561.009 269.236" stroke="black" stroke-width="3" stroke-linecap="round"/>
<path d="M566.76 168.165C567.781 167.818 568.736 166.969 569.501 166.278C570.352 165.508 571.794 165.149 572.595 164.284C574.169 162.588 577.771 163.083 578.729 165.111C579.106 165.909 580.22 167.078 580.845 167.682C581.733 168.54 582.504 169.627 583.172 170.575C583.825 171.504 584.3 172.258 585.128 173.06C585.903 173.809 586.981 174.77 587.529 175.661C588.586 177.376 590.271 178.794 591.711 180.187C593.241 181.666 594.249 183.875 595.347 185.658C595.792 186.38 597.174 187.648 596.492 188.686C595.98 189.463 595.296 190.091 594.807 190.833C594.402 191.448 593.56 193.54 593.043 193.892C592.808 194.053 592.228 194.631 592.104 194.872C591.475 196.106 591.843 195.001 591.701 194.109" stroke="black" stroke-width="3" stroke-linecap="round"/>
<path d="M527.529 209.849C524.978 210.715 523.479 211.653 522.942 214.456C522.44 217.077 521.954 219.83 522.071 222.545C522.171 224.848 521.199 226.8 522.031 229.25C522.872 231.725 524.126 232.984 525.59 235.072C528.078 238.617 533.343 241.417 537.745 239.921C540.188 239.091 542.596 238.857 544.905 237.468C546.378 236.583 548.328 234.576 548.587 232.808" stroke="black" stroke-width="3" stroke-linecap="round"/>
<path d="M538.372 218.067L553.841 240.105L561.421 267.671L418.04 754.159L6.82788e-05 314.842L497.696 193.665L516.547 198.447L538.372 218.067Z" fill="url(#paint0_linear_301_51)"/>
<defs>
<linearGradient id="paint0_linear_301_51" x1="539.887" y1="219.658" x2="209.02" y2="534.5" gradientUnits="userSpaceOnUse">
<stop stop-color="#FD6768" stop-opacity="0.3"/>
<stop offset="1" stop-color="#FFFBCD" stop-opacity="0"/>
</linearGradient>
</defs>
</svg>
