<svg width="1300" height="227" viewBox="0 0 1300 227" fill="none" xmlns="http://www.w3.org/2000/svg">
<path d="M196.933 2.63062C190.324 2.47636 184.78 2.13214 178.601 4.03261" stroke="black" stroke-width="3" stroke-linecap="round"/>
<path d="M193.147 8.03182C186.094 2.11398 175.258 15.5185 169.329 9.30575" stroke="black" stroke-width="3" stroke-linecap="round"/>
<path d="M189.276 17.0906C177.044 17.1546 168.232 25.7488 156.143 25.4666" stroke="black" stroke-width="3" stroke-linecap="round"/>
<path d="M170.731 27.637C162.721 28.6786 154.975 29.0991 146.913 28.9109" stroke="black" stroke-width="3" stroke-linecap="round"/>
<path d="M172.389 34.9954C160.194 38.6036 147.648 38.3275 135.641 41.4571" stroke="black" stroke-width="3" stroke-linecap="round"/>
<path d="M150.059 50.9428C140.422 54.5388 128.246 53.8788 120.541 61.233" stroke="black" stroke-width="3" stroke-linecap="round"/>
<path d="M138.744 65.3178C128.945 67.562 118.978 69.4307 109.311 71.9502" stroke="black" stroke-width="3" stroke-linecap="round"/>
<path d="M127.344 83.3506C119.792 85.9831 106.246 83.3958 101.569 90.0684" stroke="black" stroke-width="3" stroke-linecap="round"/>
<path d="M106.885 97.5116C99.2983 99.8451 93.0349 101.782 86.5537 106.186" stroke="black" stroke-width="3" stroke-linecap="round"/>
<path d="M97.3988 111.929C89.697 112.773 82.4299 116.064 75.2816 118.732" stroke="black" stroke-width="3" stroke-linecap="round"/>
<path d="M87.8702 128.176C80.0437 131.716 72.6238 135.139 63.9242 134.936" stroke="black" stroke-width="3" stroke-linecap="round"/>
<path d="M80.256 140.807C73.3096 145.207 64.3799 145.926 56.3526 145.739" stroke="black" stroke-width="3" stroke-linecap="round"/>
<path d="M76.1714 159.011C64.8793 161.555 54.5729 167.18 42.9956 169.215" stroke="black" stroke-width="3" stroke-linecap="round"/>
<path d="M55.7123 173.172C44.8829 176.122 34.5539 179.617 24.3654 183.42" stroke="black" stroke-width="3" stroke-linecap="round"/>
<path d="M57.285 184.187C45.4256 188.613 32.5806 190.576 20.4515 194.307" stroke="black" stroke-width="3" stroke-linecap="round"/>
<path d="M27.6389 199.964C16.6648 202.538 9.6365 208.205 1.65054 215.827" stroke="black" stroke-width="3" stroke-linecap="round"/>
<path d="M34.9971 198.306C43.9979 198.516 51.1756 196.816 59.7912 194.412C66.9455 192.416 74.2653 194.782 81.2866 192.474C91.6344 189.072 102.145 185.922 112.319 182.626C122.678 179.269 133.493 179.874 144.247 177.983C187.109 170.446 230.898 169.181 274.313 167.396C286.386 166.9 298.635 164.397 310.673 164.484C322.165 164.567 334.365 167.443 345.733 169.368C371.031 173.653 395.87 173.792 421.555 174.391C431.961 174.634 441.945 171.207 452.427 171.452C466.232 171.774 479.751 170.041 493.517 170.581C505.052 171.034 516.453 174.776 527.876 175.043C544.173 175.423 561.144 177.735 577.151 180.666C605.864 185.924 633.969 183.009 662.881 183.684C702.342 184.605 740.619 188.861 780.063 184.996C800.663 182.977 821.691 189.352 842.025 191.525C859.985 193.445 876.267 193.225 894.247 192.846C929.757 192.097 964.538 186.367 999.698 182.803C1015.27 181.224 1031.75 183.275 1047.12 180.657C1059.77 178.503 1071.85 173.304 1084.9 173.609C1089.59 173.718 1093.94 176.747 1098.64 177.284C1104.51 177.957 1110.61 177.666 1116.52 177.803C1127.97 178.071 1139.41 178.338 1150.86 178.605C1160.08 178.82 1166.21 182.884 1174.59 185.563C1184.1 188.603 1192.5 185.067 1201.74 185.282C1213.86 185.565 1225.37 184.004 1237.55 184.288" stroke="black" stroke-width="3" stroke-linecap="round"/>
<path d="M1120.13 40.6477C1129.08 40.8566 1137.65 39.2269 1146.59 39.4355C1151.77 39.5564 1153.49 42.9385 1158.58 39.7153" stroke="black" stroke-width="3" stroke-linecap="round"/>
<path d="M1134.67 44.6473C1145.15 44.8919 1168.44 40.6854 1176.65 49.2869" stroke="black" stroke-width="3" stroke-linecap="round"/>
<path d="M1150.88 56.0044C1164.48 56.6315 1177.4 60.2833 1191.03 60.6013" stroke="black" stroke-width="3" stroke-linecap="round"/>
<path d="M1168.91 67.4048C1179.18 71.0951 1188.4 74.4803 1199.49 72.5916C1204.12 71.8022 1208.01 70.1472 1212.76 70.2582" stroke="black" stroke-width="3" stroke-linecap="round"/>
<path d="M1192.3 84.4194C1204.44 86.508 1216.96 85.6767 1228.79 88.9309" stroke="black" stroke-width="3" stroke-linecap="round"/>
<path d="M1202.85 102.964C1213.99 103.224 1225.01 102.616 1235.72 105.561" stroke="black" stroke-width="3" stroke-linecap="round"/>
<path d="M1219.05 114.322C1233.59 116.952 1249.8 120.529 1264.64 120.876" stroke="black" stroke-width="3" stroke-linecap="round"/>
<path d="M1238.78 131.251C1249.08 131.895 1264.02 136.284 1273.32 141.206" stroke="black" stroke-width="3" stroke-linecap="round"/>
<path d="M1251.24 146.181C1258.33 150.349 1274.62 159.633 1282.21 152.393" stroke="black" stroke-width="3" stroke-linecap="round"/>
<path d="M1254.52 162.726C1263.4 162.933 1268.9 163.318 1276.46 167.711C1281.64 170.717 1285.55 170.734 1290.97 169.066" stroke="black" stroke-width="3" stroke-linecap="round"/>
<path d="M1261.62 172.041C1262.2 179.136 1292.49 187.166 1296.2 180.168" stroke="black" stroke-width="3" stroke-linecap="round"/>
<path d="M1241.12 188.031C1246.93 190.298 1252.94 189.916 1259.06 190.381C1264.39 190.787 1268.77 193.491 1273.91 194.185C1282.14 195.293 1290.01 193.571 1297.77 191.183" stroke="black" stroke-width="3" stroke-linecap="round"/>
<path d="M1096 14.1443C1107.56 13.2601 1115.83 15.5687 1123.65 5.64032" stroke="black" stroke-width="3" stroke-linecap="round"/>
<path d="M1115.03 24.0599C1120.81 19.0908 1135.09 19.0385 1142.59 19.2136" stroke="black" stroke-width="3" stroke-linecap="round"/>
<path d="M1118.47 33.2899C1128.62 33.2368 1149.01 35.293 1153.43 24.9566" stroke="black" stroke-width="3" stroke-linecap="round"/>
<path d="M192.59 11.6202C192.576 16.1772 186.659 18.5706 184.787 22.9781C183.781 25.3468 184.15 27.8132 182.778 30.1985C181.701 32.0698 178.737 30.432 177.172 31.988C173.049 36.0858 175.497 40.9265 170.628 44.8854C166.187 48.4966 168.639 56.4106 166.073 57.4275C159.847 59.8961 159.826 64.1324 156.644 68.7805C153 74.1046 144.884 74.0771 141.975 80.5691C140.149 84.6433 133.836 83.4049 133.82 88.674C133.794 97.0081 127.558 93.6691 124.389 100.479C122.209 105.165 116.739 106.528 114.599 111.83C112.709 116.514 103.03 113.381 101.292 121.094C100.794 123.303 102.276 125.447 101.724 127.509C100.906 130.561 98.3139 133.637 96.9987 136.618C94.9245 141.32 90.3333 144.445 88.4693 149.148C87.3343 152.011 89.4438 156.423 87.7168 158.901C82.2363 166.766 78.0837 174.917 71.7454 182.79C69.7088 185.32 66.3012 188.465 62.7853 188.454C59.8409 188.445 58.8383 188.766 57.0856 191.327C56.2618 192.531 55.4434 196.637 55.4486 194.935" stroke="black" stroke-width="3" stroke-linecap="round"/>
<path d="M1094.99 14.3789C1082.98 20.3387 1094.24 18.7844 1101.12 21.2628C1107.87 23.6981 1104.9 28.5831 1107.94 33.5688C1111.42 39.2547 1117.78 36.5159 1120.56 44.0858C1122.72 49.9772 1128.43 50.6765 1133.9 53.1598C1141.49 56.6047 1157.54 70.259 1158.21 79.2496C1158.51 83.2951 1165.8 79.4578 1167.59 84.1561C1169.26 88.5458 1171.81 94.0402 1176.04 96.2864C1187.09 102.142 1194.85 114.126 1203.6 122.928C1212.29 131.666 1219.48 140.764 1227.91 149.741C1232.79 154.943 1249.01 162.425 1248.98 170.943C1248.97 174.756 1244.64 194.493 1242.43 185.556" stroke="black" stroke-width="3" stroke-linecap="round"/>
<path d="M155.763 165.489C165.03 160.394 171.022 149.367 177.485 141.286C180.678 137.294 200.928 105.522 208.719 109.173C221.49 115.158 240.856 125.161 248.911 137.354C253.082 143.668 253.089 148.815 260.192 143.073C269.241 135.756 280.061 128.46 290.953 124.581C299.049 121.698 307.838 117.95 316.164 115.997C324.095 114.137 324.299 114.178 331.334 118.931C341.696 125.93 353.693 129.49 364.49 135.362C370.551 138.658 373.999 141.796 380.944 141.818C388.181 141.84 392.206 134.585 397.969 130.592C406.281 124.834 413.758 119.203 423.627 116.777C430.244 115.15 431.539 118.85 436.547 122.5C442.139 126.576 448.292 129.826 453.848 133.921C457.6 136.686 474.133 148.208 479.086 144.644C483.114 141.745 484.799 134.015 490.417 134.033C493.127 134.041 495.239 134.439 497.064 132.068C501.762 125.963 512.163 123.384 519.184 118.693C523.136 116.053 523.987 113.353 527.318 110.147C531.504 106.118 541.04 108.204 546.298 108.22C556.612 108.252 552.207 131.436 562.257 135.515C566.933 137.413 571.615 143.608 576.455 146.475C580.89 149.104 585.297 151.688 589.8 154.185C595.962 157.602 606.559 147.561 611.996 144.238C621.774 138.263 629.5 128.984 639.574 123.211C659.424 111.836 661.266 129.479 679.906 133.619C691.857 136.274 699.198 139.747 708.149 148.953C714.456 155.441 715.884 162.839 723.488 153.15C734.076 139.659 744.136 135.429 758.152 127.543C767.49 122.29 775.479 123.536 786.195 123.569C795.653 123.598 808.621 122.395 814.804 131.867C820.447 140.51 822.162 152.521 830.331 159.251C833.038 161.481 835.96 163.118 838.506 165.591C841.56 168.558 843.198 160.408 844.566 158.031C851.131 146.628 860.43 133.898 872.344 127.983C878.635 124.859 883.351 124.463 888.987 128.755C895.795 133.939 904.184 136.447 911.201 141.454C917.831 146.186 923.752 151.45 931.343 154.507C949.647 161.878 959.961 156.715 974.843 144.445C981.503 138.954 988.963 134.692 995.761 129.443C1001.45 125.05 1004.22 125.514 1010.6 129.217C1019.52 134.402 1030.42 136.117 1038.33 143.106C1047.42 151.143 1057.27 159.025 1067.38 148.517C1076.71 138.81 1084.94 136.104 1096.33 129.75C1107.55 123.482 1111.11 121.531 1121.86 127.843C1135.05 135.588 1149.93 138.695 1162.17 147.454C1169.99 153.056 1168.39 152.729 1172.01 144.146C1173.15 141.442 1176.46 132.921 1173.95 129.987C1173.03 128.918 1164.19 127.79 1162.66 127.156C1155.24 124.092 1115.22 117.129 1114.49 112.844C1113.95 109.671 1121.05 100.315 1122.3 96.9894C1123.85 92.863 1122.95 88.3157 1123.2 84.0005C1123.41 80.5708 1108.62 82.0725 1104.58 81.4174C1095.48 79.9396 1085.85 78.1062 1076.91 75.7392C1072.49 74.5677 1087.45 64.5368 1089.11 62.4239C1091.74 59.0865 1095.38 54.1731 1097.43 50.6306C1097.8 49.9945 1090.91 49.2453 1090.36 49.0752C1085.5 47.5579 1081.8 43.7674 1077.1 41.9975C1073.6 40.6777 1071.34 41.619 1076.76 41.6356" stroke="black" stroke-width="3" stroke-linecap="round"/>
<path d="M157.978 164.355C157.173 156.9 148.387 153.264 145.022 147.333C143.573 144.779 131.21 135.13 131.329 135.097C138.656 133.028 146.044 128.492 152.5 124.412C156.6 121.82 160.451 120.447 164.622 118.487C170.635 115.662 172.664 115.524 168.708 111.544C165.651 108.468 164.111 105.949 162.957 101.861C161.542 96.8514 166.914 95.8245 171.566 92.8543C175.306 90.4662 195.411 80.4227 195.643 76.6682C196.164 68.2588 175.737 67.6541 184.677 59.1103C190.102 53.9258 203.107 46.4465 205.513 39.3011" stroke="black" stroke-width="3" stroke-linecap="round"/>
</svg>
